<svg xmlns="http://www.w3.org/2000/svg" viewBox="0 0 400 300" width="100%" height="100%">
    <defs>
      <linearGradient id="bgGrad" x1="0%" y1="0%" x2="100%" y2="100%">
        <stop offset="0%" stop-color="#0f172a" />
        <stop offset="100%" stop-color="#1e1b4b" />
      </linearGradient>
      <clipPath id="rectClip">
        <rect width="400" height="300" rx="20" />
      </clipPath>
    </defs>
    <g clip-path="url(#rectClip)">
      <rect width="400" height="300" fill="url(#bgGrad)" />
      <circle cx="350" cy="50" r="120" fill="#ffffff" opacity="0.03" />
      <circle cx="50" cy="250" r="80" fill="#ffffff" opacity="0.04" />
      <g transform="translate(0, 10)" opacity="0.85">
        <path d="M20 180h360M60 180V100l40-30 40 30v80M140 180v-50l30-20 30 20v50M200 180V70l40-40 40 40v110M280 180v-50l30-20 30 20v50M340 180V100l30-20 30 20v80" stroke="#FFD700" stroke-width="4" fill="none" stroke-linecap="round" stroke-linejoin="round"/>
      </g>
      <rect x="20" y="200" width="360" height="80" rx="15" fill="#0b1437" fill-opacity="0.6" stroke="#ffffff" stroke-opacity="0.15" stroke-width="1.5" style="backdrop-filter: blur(10px);" />
      <text x="40" y="235" font-family="'Playfair Display', 'Georgia', serif" font-size="18" font-weight="bold" fill="#ffffff">StaySphere Collection 4</text>
      <text x="40" y="260" font-family="'Inter', sans-serif" font-size="10" font-weight="600" fill="#d4a017" letter-spacing="1.5" text-transform="uppercase">Luxury Signature Experience</text>
      <rect x="310" y="222" width="50" height="22" rx="8" fill="#ffd700" />
      <text x="335" y="237" font-family="'Inter', sans-serif" font-size="11" font-weight="bold" fill="#0b1437" text-anchor="middle">★ 4.9</text>
    </g>
  </svg>